# xmcd
#
# Track frame offsets:
#	150
#	14015
#	28935
#	45393
#	62138
#	79178
#	94385
#	108341
#	121927
#	141834
#	146377
#
# Disc length: 2187 seconds
#
# Revision: 0
# Processed by: cddbd v1.5.1PL0 Copyright (c) Steve Scherf et al.
# Submitted via: dBpowerAMP V4.0
#
DISCID=9708890b
DTITLE=The Great Divide - Under Young Own Sun
DYEAR=2005
DGENRE=Texas Country
TTITLE0=Crazy In California
TTITLE1=You're Not The Only One
TTITLE2=The Plan
TTITLE3=Just Another Day
TTITLE4=Scared Of Heights
TTITLE5=Can't Call It Cheatin'
TTITLE6=She's Leaving This Town
TTITLE7=Love and Gasoline
TTITLE8=Better Place
TTITLE9=Cowboy Song (intro)
TTITLE10=Cowboy Song
EXTD=
EXTT0=
EXTT1=
EXTT2=
EXTT3=
EXTT4=
EXTT5=
EXTT6=
EXTT7=
EXTT8=
EXTT9=
EXTT10=
PLAYORDER=
